<svg data-v-fde0c5aa="" xmlns="http://www.w3.org/2000/svg" viewBox="0 0 300 300" class="iconLeft"><!----><defs data-v-fde0c5aa=""><!----></defs><rect data-v-fde0c5aa="" fill="transparent" x="0" y="0" width="300px" height="300px" class="logo-background-square"></rect><defs data-v-fde0c5aa=""><!----></defs><g data-v-fde0c5aa="" id="f08fff58-bb66-47ca-9bdb-fcb93b8b1738" fill="#000000" transform="matrix(2.74154032581673,0,0,2.74154032581673,92.574135263335,125.64141357762958)"><path d="M8.69 13.29L8.60 13.29L8.41 13.29C8.33 13.29 8.25 13.27 8.16 13.27L5.19 9.53C5.11 9.42 5.00 9.32 4.89 9.25C5.32 9.21 5.71 9.11 6.06 8.96C6.41 8.81 6.69 8.61 6.94 8.37C7.18 8.13 7.38 7.85 7.50 7.55C7.63 7.24 7.70 6.89 7.70 6.51C7.70 5.66 7.42 5.03 6.86 4.58C6.30 4.14 5.45 3.92 4.30 3.92L1.89 3.92L0.71 3.92L0.71 4.19C0.71 4.34 0.80 4.42 0.98 4.44L1.12 4.44C1.19 4.44 1.29 4.45 1.43 4.45C1.57 4.45 1.72 4.47 1.89 4.47L1.89 13.26C1.72 13.26 1.57 13.27 1.43 13.27C1.29 13.27 1.19 13.29 1.12 13.29L0.98 13.29C0.80 13.30 0.70 13.38 0.70 13.54L0.70 13.82L1.89 13.82L2.60 13.82L3.78 13.82L3.78 13.54C3.78 13.38 3.68 13.30 3.50 13.29L3.36 13.29C3.29 13.29 3.19 13.27 3.05 13.27C2.91 13.27 2.77 13.26 2.60 13.26L2.60 9.34L3.78 9.34C3.98 9.34 4.12 9.35 4.20 9.39C4.28 9.44 4.37 9.52 4.45 9.62L7.63 13.64C7.69 13.71 7.73 13.75 7.78 13.78C7.84 13.80 7.91 13.82 7.98 13.82L8.05 13.82L8.60 13.82L8.96 13.82L8.96 13.54C8.96 13.38 8.88 13.30 8.69 13.29ZM4.20 8.81L2.60 8.81L2.60 4.48L4.30 4.48C5.18 4.48 5.85 4.66 6.31 5.00C6.78 5.33 7 5.87 7 6.57C7 6.92 6.94 7.21 6.82 7.49C6.69 7.77 6.50 7.99 6.26 8.19C6.02 8.39 5.73 8.55 5.38 8.65C5.03 8.75 4.63 8.81 4.20 8.81ZM13.15 6.73C12.66 6.73 12.21 6.83 11.82 7.00C11.42 7.17 11.10 7.41 10.84 7.71C10.57 8.02 10.36 8.39 10.22 8.81C10.08 9.23 10.00 9.69 10.00 10.19C10.00 10.78 10.08 11.31 10.23 11.77C10.39 12.24 10.60 12.61 10.88 12.94C11.16 13.26 11.49 13.50 11.89 13.66C12.28 13.83 12.71 13.90 13.19 13.90C13.45 13.90 13.72 13.89 13.97 13.83C14.22 13.78 14.48 13.71 14.70 13.62C14.92 13.54 15.13 13.44 15.32 13.31C15.50 13.19 15.65 13.06 15.76 12.92L15.58 12.70C15.55 12.66 15.50 12.63 15.44 12.63C15.40 12.63 15.32 12.66 15.22 12.74C15.12 12.82 14.98 12.91 14.80 13.01C14.63 13.10 14.41 13.17 14.15 13.26C13.90 13.34 13.59 13.38 13.24 13.38C12.85 13.38 12.50 13.31 12.18 13.17C11.86 13.03 11.59 12.84 11.37 12.57C11.14 12.31 10.98 11.97 10.85 11.58C10.72 11.19 10.67 10.71 10.67 10.19L10.67 10.07L15.69 10.07C15.76 10.07 15.81 10.05 15.83 10.01C15.86 9.97 15.89 9.90 15.89 9.80C15.89 9.31 15.82 8.88 15.68 8.50C15.54 8.12 15.36 7.78 15.11 7.53C14.87 7.28 14.57 7.08 14.24 6.94C13.90 6.80 13.54 6.73 13.15 6.73ZM13.16 7.24C13.48 7.24 13.76 7.29 14.03 7.41C14.29 7.52 14.52 7.67 14.70 7.88C14.88 8.09 15.04 8.33 15.13 8.62C15.23 8.92 15.29 9.25 15.29 9.63L10.70 9.63C10.74 9.27 10.82 8.93 10.95 8.64C11.07 8.34 11.24 8.09 11.45 7.88C11.66 7.67 11.91 7.52 12.19 7.41C12.47 7.29 12.80 7.24 13.16 7.24ZM17.40 9.38L17.40 9.95L20.65 9.95L20.65 9.38ZM30.62 3.92L30.06 3.92L30.03 3.92L28.56 3.92L28.56 4.19C28.56 4.34 28.64 4.42 28.83 4.44L28.95 4.44C29.01 4.44 29.09 4.45 29.22 4.45C29.34 4.45 29.48 4.47 29.64 4.47L26.43 12.32C26.35 12.53 26.28 12.75 26.22 13.01C26.17 12.77 26.10 12.53 26.01 12.32L22.78 4.47C22.93 4.47 23.09 4.45 23.21 4.45C23.34 4.45 23.42 4.44 23.48 4.44L23.59 4.44C23.77 4.42 23.87 4.34 23.87 4.19L23.87 3.92L22.37 3.92L21.81 3.92L21.21 3.92L21.21 4.19C21.21 4.34 21.31 4.42 21.49 4.44L21.59 4.44C21.63 4.44 21.70 4.45 21.77 4.45C21.84 4.45 21.94 4.47 22.04 4.47L25.90 13.82L26.53 13.82L30.39 4.47C30.49 4.47 30.59 4.45 30.66 4.45C30.73 4.45 30.80 4.44 30.84 4.44L30.93 4.44C31.11 4.42 31.21 4.34 31.21 4.19L31.21 3.92ZM33.17 4.89C33.22 4.94 33.29 4.98 33.36 5.01C33.43 5.04 33.52 5.07 33.60 5.07C33.68 5.07 33.77 5.04 33.84 5.01C33.91 4.98 33.98 4.94 34.03 4.89C34.09 4.83 34.15 4.76 34.17 4.69C34.20 4.62 34.23 4.54 34.23 4.45C34.23 4.37 34.20 4.30 34.17 4.21C34.15 4.14 34.09 4.07 34.03 4.02C33.98 3.96 33.91 3.91 33.84 3.88C33.77 3.85 33.68 3.84 33.60 3.84C33.52 3.84 33.43 3.85 33.36 3.88C33.29 3.91 33.22 3.96 33.17 4.02C33.11 4.07 33.07 4.14 33.04 4.21C33.01 4.28 32.98 4.37 32.98 4.45C32.98 4.54 33.01 4.62 33.04 4.69C33.07 4.76 33.11 4.83 33.17 4.89ZM34.66 13.29L34.59 13.29L34.48 13.29C34.44 13.29 34.37 13.27 34.27 13.27C34.17 13.27 34.06 13.26 33.94 13.26L33.94 6.85L33.26 6.85L32.26 6.85L32.26 7.13C32.26 7.28 32.35 7.36 32.54 7.38L32.61 7.38C32.63 7.38 32.68 7.39 32.72 7.39L32.93 7.39C33.03 7.39 33.14 7.41 33.26 7.41L33.26 13.26C33.11 13.26 32.97 13.29 32.86 13.29L32.62 13.29L32.54 13.29C32.35 13.30 32.26 13.38 32.26 13.54L32.26 13.82L33.26 13.82L33.94 13.82L34.94 13.82L34.94 13.54C34.94 13.38 34.85 13.30 34.66 13.29ZM40.75 11.06C40.64 10.86 40.50 10.71 40.32 10.57C40.14 10.43 39.93 10.32 39.70 10.23C39.48 10.15 39.23 10.05 38.99 9.98C38.75 9.91 38.51 9.83 38.28 9.76C38.05 9.69 37.84 9.59 37.66 9.49C37.48 9.39 37.34 9.27 37.23 9.13C37.11 8.99 37.06 8.81 37.06 8.58C37.06 8.40 37.09 8.23 37.17 8.08C37.25 7.92 37.37 7.77 37.52 7.64C37.66 7.52 37.84 7.43 38.05 7.36C38.26 7.29 38.49 7.25 38.74 7.25C39.10 7.25 39.47 7.31 39.84 7.43C39.86 7.60 39.87 7.77 39.89 7.92C39.90 8.08 39.90 8.19 39.91 8.27C39.93 8.36 39.93 8.43 39.93 8.44C39.94 8.67 40.04 8.78 40.24 8.78L40.57 8.78L40.57 7.11C39.84 6.86 39.23 6.75 38.72 6.75C38.37 6.75 38.05 6.80 37.77 6.90C37.49 7.00 37.24 7.14 37.04 7.31C36.85 7.48 36.69 7.69 36.58 7.91C36.47 8.13 36.43 8.37 36.43 8.62C36.43 8.92 36.48 9.16 36.60 9.35C36.71 9.55 36.85 9.70 37.03 9.84C37.21 9.98 37.41 10.09 37.65 10.18C37.87 10.26 38.11 10.35 38.36 10.42C38.60 10.49 38.84 10.57 39.07 10.64C39.30 10.71 39.51 10.81 39.69 10.92C39.87 11.03 40.03 11.16 40.14 11.31C40.25 11.47 40.31 11.65 40.31 11.89C40.31 12.10 40.26 12.29 40.19 12.49C40.11 12.68 40.00 12.84 39.84 12.98C39.69 13.12 39.51 13.23 39.28 13.31C39.06 13.40 38.81 13.44 38.51 13.44C37.98 13.44 37.53 13.37 37.16 13.22C37.14 13.03 37.13 12.87 37.11 12.71C37.10 12.56 37.10 12.43 37.09 12.35C37.07 12.26 37.07 12.19 37.07 12.18C37.06 11.96 36.96 11.84 36.76 11.84L36.43 11.84L36.43 13.54C37.10 13.79 37.79 13.93 38.49 13.93C38.88 13.93 39.21 13.87 39.52 13.76C39.83 13.65 40.08 13.50 40.29 13.30C40.50 13.10 40.66 12.89 40.77 12.63C40.88 12.36 40.94 12.08 40.94 11.77C40.94 11.49 40.87 11.26 40.75 11.06ZM43.09 4.89C43.15 4.94 43.22 4.98 43.29 5.01C43.36 5.04 43.44 5.07 43.53 5.07C43.61 5.07 43.69 5.04 43.76 5.01C43.83 4.98 43.90 4.94 43.96 4.89C44.02 4.83 44.07 4.76 44.10 4.69C44.13 4.62 44.16 4.54 44.16 4.45C44.16 4.37 44.13 4.30 44.10 4.21C44.07 4.14 44.02 4.07 43.96 4.02C43.90 3.96 43.83 3.91 43.76 3.88C43.69 3.85 43.61 3.84 43.53 3.84C43.44 3.84 43.36 3.85 43.29 3.88C43.22 3.91 43.15 3.96 43.09 4.02C43.04 4.07 42.99 4.14 42.97 4.21C42.94 4.28 42.91 4.37 42.91 4.45C42.91 4.54 42.94 4.62 42.97 4.69C42.99 4.76 43.04 4.83 43.09 4.89ZM44.59 13.29L44.52 13.29L44.41 13.29C44.37 13.29 44.30 13.27 44.20 13.27C44.10 13.27 43.99 13.26 43.86 13.26L43.86 6.85L43.19 6.85L42.18 6.85L42.18 7.13C42.18 7.28 42.28 7.36 42.46 7.38L42.53 7.38C42.56 7.38 42.60 7.39 42.64 7.39L42.85 7.39C42.95 7.39 43.06 7.41 43.19 7.41L43.19 13.26C43.04 13.26 42.90 13.29 42.78 13.29L42.55 13.29L42.46 13.29C42.28 13.30 42.18 13.38 42.18 13.54L42.18 13.82L43.19 13.82L43.86 13.82L44.87 13.82L44.87 13.54C44.87 13.38 44.77 13.30 44.59 13.29ZM49.15 6.73C48.65 6.73 48.20 6.83 47.81 7.00C47.42 7.17 47.08 7.41 46.80 7.71C46.52 8.02 46.33 8.40 46.19 8.85C46.05 9.30 45.96 9.79 45.96 10.33C45.96 10.88 46.05 11.37 46.19 11.80C46.33 12.24 46.52 12.63 46.80 12.94C47.08 13.24 47.42 13.48 47.81 13.65C48.20 13.82 48.65 13.90 49.15 13.90C49.66 13.90 50.09 13.82 50.48 13.65C50.88 13.48 51.21 13.24 51.48 12.94C51.74 12.63 51.97 12.24 52.11 11.80C52.25 11.37 52.32 10.88 52.32 10.33C52.32 9.79 52.25 9.30 52.11 8.85C51.97 8.40 51.74 8.02 51.48 7.71C51.21 7.41 50.88 7.17 50.48 7.00C50.09 6.83 49.66 6.73 49.15 6.73ZM49.15 13.38C48.73 13.38 48.37 13.31 48.06 13.17C47.75 13.03 47.49 12.82 47.28 12.56C47.07 12.29 46.93 11.97 46.82 11.59C46.70 11.21 46.66 10.79 46.66 10.33C46.66 9.87 46.70 9.45 46.82 9.07C46.93 8.69 47.07 8.37 47.28 8.11C47.49 7.84 47.75 7.62 48.06 7.48C48.37 7.34 48.73 7.27 49.15 7.27C49.57 7.27 49.92 7.34 50.23 7.48C50.54 7.62 50.81 7.84 51.02 8.11C51.23 8.37 51.38 8.69 51.48 9.07C51.58 9.45 51.63 9.87 51.63 10.33C51.63 10.79 51.58 11.21 51.48 11.59C51.38 11.97 51.23 12.29 51.02 12.56C50.81 12.82 50.54 13.03 50.23 13.17C49.92 13.31 49.57 13.38 49.15 13.38ZM60.79 13.29L60.72 13.29L60.61 13.29C60.56 13.29 60.49 13.27 60.40 13.27C60.30 13.27 60.19 13.26 60.06 13.26L60.06 9.37C60.06 8.96 60.00 8.60 59.91 8.27C59.81 7.95 59.67 7.67 59.47 7.45C59.28 7.22 59.04 7.06 58.74 6.93C58.45 6.80 58.11 6.75 57.74 6.75C57.22 6.75 56.74 6.87 56.32 7.11C55.90 7.36 55.54 7.67 55.22 8.08L55.16 7.03C55.15 6.92 55.08 6.86 54.95 6.86L54.59 6.86L53.58 6.86L53.58 7.13C53.58 7.28 53.66 7.36 53.84 7.38L53.93 7.38C53.96 7.38 53.98 7.39 54.03 7.39L54.24 7.39C54.33 7.39 54.46 7.41 54.59 7.41L54.59 13.26C54.42 13.26 54.28 13.29 54.17 13.29L53.94 13.29L53.84 13.29C53.66 13.30 53.58 13.38 53.58 13.54L53.58 13.82L54.59 13.82L55.24 13.82L56.25 13.82L56.25 13.54C56.25 13.38 56.17 13.30 55.99 13.29L55.90 13.29L55.80 13.29C55.76 13.29 55.69 13.27 55.59 13.27C55.50 13.27 55.37 13.26 55.24 13.26L55.24 8.60C55.55 8.19 55.90 7.87 56.29 7.63C56.69 7.39 57.11 7.28 57.57 7.28C58.18 7.28 58.65 7.46 58.94 7.83C59.23 8.20 59.39 8.71 59.39 9.37L59.39 13.82L60.06 13.82L61.07 13.82L61.07 13.54C61.07 13.38 60.97 13.30 60.79 13.29Z"></path></g><defs data-v-fde0c5aa=""><linearGradient data-v-fde0c5aa="" gradientTransform="rotate(25)" id="02315571-10cf-4543-bafd-dbd762261c39" x1="0%" y1="0%" x2="100%" y2="0%"><stop data-v-fde0c5aa="" offset="0%" stop-color="#0D7CE9" stop-opacity="1"></stop><stop data-v-fde0c5aa="" offset="100%" stop-color="#15CFF1" stop-opacity="1"></stop></linearGradient></defs><g data-v-fde0c5aa="" id="b5deb9d8-0e74-4c51-8c98-41581c9842a5" stroke="none" fill="url(#02315571-10cf-4543-bafd-dbd762261c39)" transform="matrix(1.296662920585156,0,0,1.296662920585156,40,129.2533932706375)"><path d="M4.029 14.362L14.362 4.028l.707.707L4.736 15.07zM17.135 27.47L27.47 17.135l.707.707-10.333 10.333zM4.029 17.841l.707-.707 10.333 10.334-.707.707zM17.135 4.735l.708-.707L28.176 14.36l-.707.707z"></path><g><path d="M16 1.414l1.683 1.683L16 4.779l-1.683-1.683L16 1.414M16 0l-3.097 3.097L16 6.194l3.097-3.097L16 0zM16 27.221l1.683 1.683L16 30.586l-1.683-1.683L16 27.221m0-1.415l-3.097 3.097L16 32l3.097-3.097L16 25.806zM3.097 14.317L4.779 16l-1.683 1.683L1.414 16l1.683-1.683m0-1.414L0 16l3.097 3.097L6.194 16l-3.097-3.097zM28.903 14.317L30.586 16l-1.683 1.683L27.221 16l1.682-1.683m0-1.414L25.806 16l3.097 3.097L32 16l-3.097-3.097z"></path></g></g><!----></svg>